<svg width="98" height="59" viewBox="0 0 98 59" fill="none" xmlns="http://www.w3.org/2000/svg">
<g clip-path="url(#clip0_124_223)">
<path d="M86.6811 36.2247C86.6345 36.2247 86.5878 36.2364 86.5412 36.2364C87.4388 34.1425 87.9459 31.8374 87.9459 29.415C87.9459 19.9072 80.2873 12.2 70.8393 12.2C67.4996 12.2 64.393 13.1795 61.7644 14.8394C58.2032 6.1352 49.6936 0 39.756 0C26.6128 0 15.9584 10.7219 15.9584 23.9484C15.9584 24.9455 16.04 25.925 16.1565 26.8928C16.0924 26.8928 16.0225 26.8811 15.9584 26.8811C7.14571 26.8811 0 34.0721 0 42.9406C0 51.809 7.14571 59 15.9584 59H86.6869C92.935 59 98.0058 53.903 98.0058 47.6153C98.0058 41.3276 92.9409 36.2247 86.6869 36.2247H86.6811Z" fill="white"/>
</g>
<defs>
<clipPath id="clip0_124_223">
<rect width="98" height="59" fill="white"/>
</clipPath>
</defs>
</svg>
