<svg id="headphone_icon" xmlns="http://www.w3.org/2000/svg" width="20.125" height="19.072" viewBox="0 0 20.125 19.072">
  <g id="그룹_103" data-name="그룹 103" transform="translate(0 0)">
    <path id="패스_179" data-name="패스 179" d="M17.524,19.412H16.09A1.577,1.577,0,0,0,14.5,20.947v8.324a1.587,1.587,0,0,0,1.586,1.548h1.447c.038,0,.089-.013.127-.013.406-.076,2.462-.7,2.462-5.913a11.3,11.3,0,0,0-.406-3.287.743.743,0,0,0,.025-.165,9.682,9.682,0,0,0-19.364,0,.741.741,0,0,0,.076.33A11.916,11.916,0,0,0,0,25.338,8.021,8.021,0,0,0,1,29.88a2.024,2.024,0,0,0,1.586.952H4.048a1.587,1.587,0,0,0,1.586-1.548V20.96a1.6,1.6,0,0,0-1.6-1.548H2.589a.432.432,0,0,0-.127.013,1.469,1.469,0,0,0-.33.1,8.157,8.157,0,0,1,15.849-.038,1.507,1.507,0,0,0-.444-.076Zm-14.8,1.523H4.035a.551.551,0,0,1,.063.013v8.324c0,.013-.051.025-.063.025H2.6c-.292-.127-1.079-.888-1.079-3.972C1.523,21.835,2.5,21.061,2.728,20.934ZM18.6,24.906c0,3.515-.977,4.276-1.206,4.4H16.09a.326.326,0,0,1-.063-.025V20.96c0-.013.051-.013.063-.013h1.447C17.816,20.934,18.6,21.823,18.6,24.906Z" transform="translate(0 -11.76)" fill="#fff"/>
  </g>
</svg>
