<svg width="18" height="17" viewBox="0 0 18 17" fill="none" xmlns="http://www.w3.org/2000/svg">
<path d="M8.66809 16.8823C8.78196 16.9566 8.91361 16.9974 9.04864 17.0002C9.18425 17.0013 9.31697 16.9602 9.42919 16.8823C9.74044 16.67 17.0492 11.7424 17.879 6.732C18.3055 4.13851 17.5205 2.53507 16.7953 1.65103C16.3814 1.14385 15.8653 0.733943 15.2824 0.449269C14.6995 0.164595 14.0634 0.0118535 13.4175 0.00146352C13.0162 -0.00202112 12.6177 0.0699423 12.2418 0.213769C10.8381 0.768941 9.60197 1.69191 8.65733 2.89004C8.02318 2.08847 6.93978 0.933162 5.62547 0.473422C5.2057 0.329549 4.76552 0.257809 4.32282 0.261117C3.74655 0.257422 3.1759 0.377051 2.64753 0.612317C2.11916 0.847582 1.64476 1.19328 1.25481 1.6272C0.575554 2.39364 -0.196899 3.85534 0.0453511 6.40178C0.529553 11.4122 8.33413 16.6581 8.66809 16.8823ZM2.28176 2.5702C2.54063 2.28104 2.85606 2.05078 3.20759 1.89437C3.55912 1.73797 3.93888 1.65891 4.32222 1.66233C4.61232 1.66038 4.90068 1.70819 5.17532 1.80377C6.77758 2.3579 8.05723 4.4446 8.08023 4.45621C8.14223 4.56097 8.23053 4.64685 8.33595 4.70492C8.44138 4.76299 8.56008 4.79113 8.67974 4.78643C8.79913 4.78381 8.91586 4.74991 9.01878 4.68798C9.12171 4.62605 9.20737 4.53815 9.26759 4.43269C10.097 3.11433 11.3109 2.09611 12.7374 1.52212C12.9562 1.44477 13.186 1.40492 13.4175 1.40421C13.8619 1.41672 14.2986 1.52627 14.6982 1.72553C15.0979 1.92479 15.4512 2.20914 15.7346 2.55951C16.5184 3.50251 16.7836 4.87013 16.507 6.49709C16.2083 8.289 14.7778 10.4347 12.3685 12.7098C11.3203 13.6899 10.2113 14.5996 9.04834 15.4332C7.81682 14.5572 6.64232 13.6003 5.53228 12.5684C3.01956 10.2095 1.60161 8.02874 1.42866 6.26034C1.27871 4.6453 1.56696 3.37208 2.28176 2.5702Z" fill="white"/>
</svg>
