<svg width="18" height="17" viewBox="0 0 18 17" fill="none" xmlns="http://www.w3.org/2000/svg">
<path d="M8.66809 16.8823C8.78196 16.9566 8.91361 16.9974 9.04864 17.0002C9.18425 17.0013 9.31697 16.9602 9.42919 16.8823C9.74044 16.67 17.0492 11.7424 17.879 6.732C18.3055 4.13851 17.5205 2.53507 16.7953 1.65103C16.3814 1.14385 15.8653 0.733943 15.2824 0.449269C14.6995 0.164595 14.0634 0.0118535 13.4175 0.00146352C13.0162 -0.00202112 12.6177 0.0699423 12.2418 0.213769C10.8381 0.768941 9.60197 1.69191 8.65733 2.89004C8.02318 2.08847 6.93978 0.933162 5.62547 0.473422C5.2057 0.329549 4.76552 0.257809 4.32282 0.261117C3.74655 0.257422 3.1759 0.377051 2.64753 0.612317C2.11916 0.847582 1.64476 1.19328 1.25481 1.6272C0.575554 2.39364 -0.196899 3.85534 0.0453511 6.40178C0.529553 11.4122 8.33413 16.6581 8.66809 16.8823Z" fill="white"/>
</svg>
