<svg width="42" height="60" viewBox="0 0 42 60" fill="none" xmlns="http://www.w3.org/2000/svg">
<path d="M25.5338 0.524421C28.9799 1.20607 32.1231 2.3758 34.8686 4.36393C36.3371 5.42638 37.7403 6.65502 38.7334 8.23501C39.4381 9.35425 40.3154 10.4167 40.7699 11.6327C41.9081 14.677 42.3646 17.839 41.6745 21.0832C41.3421 22.6484 40.0398 23.6288 38.5461 23.4416C36.8736 23.2312 35.4998 21.8574 35.748 20.2795C36.0657 18.2514 35.8006 16.3117 35.2894 14.3972C34.8265 12.6636 33.5937 11.4097 32.2704 10.2316C30.7703 8.89351 29.1903 7.74481 27.1791 7.32404C26.5795 7.19781 26.1334 6.98953 26.2954 8.05618C26.6152 10.1369 27.3516 12.0682 28.0248 14.029C29.4807 18.2682 30.419 22.6632 32.1525 26.8288C32.8847 28.5897 33.4906 30.4411 34.1785 32.2441C36.4002 38.057 35.7543 43.6238 32.8573 49.0559C30.1939 54.0546 26.1608 57.4712 20.6992 58.6789C16.5147 59.6045 12.3112 59.2385 8.41488 56.7749C0.121527 51.5321 -2.00125 40.4974 1.86772 32.3619C3.56341 28.798 5.88395 25.8442 9.19119 23.7992C13.1801 21.3335 17.5477 20.3195 22.2266 21.5039C23.4489 21.8132 23.7645 21.6828 23.4763 20.2774C22.8199 17.0627 21.4356 14.0879 20.6256 10.9363C19.9923 8.47274 19.3338 6.03649 18.3156 3.68229C17.6003 2.02656 19.1866 0.152041 21.1978 0.0173947C22.6284 -0.0793821 24.0191 0.246714 25.5338 0.524421ZM20.7686 52.3757C23.3774 51.5342 25.1362 49.4914 26.8088 47.2655C30.9933 41.6966 30.2549 31.7917 22.801 28.1374C18.9635 26.2565 14.4971 27.1654 11.2067 29.9404C9.72978 31.1858 8.61684 32.7027 7.6638 34.4489C4.88042 39.5507 5.60624 46.6217 10.6449 50.8736C13.7039 53.455 17.1816 53.5329 20.7665 52.3757H20.7686Z" fill="white"/>
<path d="M13.9522 34.5099C13.8239 32.5639 15.2251 33.3928 15.6059 33.6032C17.6782 34.7498 21.0001 36.1383 23.6047 37.9203C24.9448 38.8375 24.2884 39.6749 23.2786 40.4848C21.1158 42.2163 18.9468 43.9099 16.7903 45.6351C15.8184 46.4135 15.0925 46.2557 14.9011 45.1764C14.2257 41.3727 14.2342 38.8607 13.948 34.5099H13.9522Z" fill="white"/>
</svg>
