<svg width="46" height="22" viewBox="0 0 46 22" fill="none" xmlns="http://www.w3.org/2000/svg">
<path d="M9.23933 0.190491C10.4861 0.437102 11.6232 0.8603 12.6165 1.57958C13.1478 1.96396 13.6555 2.40847 14.0148 2.98009C14.2697 3.38502 14.5871 3.7694 14.7516 4.20935C15.1633 5.31073 15.3285 6.45473 15.0788 7.62842C14.9586 8.19471 14.4874 8.5494 13.947 8.48166C13.3419 8.40555 12.8449 7.90852 12.9347 7.33766C13.0496 6.60391 12.9537 5.90214 12.7688 5.20949C12.6013 4.58231 12.1553 4.12866 11.6765 3.70242C11.1338 3.21833 10.5622 2.80275 9.83455 2.65052C9.61762 2.60485 9.45626 2.52949 9.51486 2.9154C9.63056 3.66817 9.89696 4.3669 10.1405 5.07629C10.6672 6.61 11.0067 8.20004 11.6339 9.70711C11.8988 10.3442 12.118 11.014 12.3669 11.6663C13.1707 13.7693 12.937 15.7833 11.8889 17.7486C10.9253 19.5571 9.46615 20.7932 7.49022 21.2301C5.97629 21.565 4.45552 21.4326 3.04588 20.5413C0.0439155 18.643 -0.72408 14.6508 0.675669 11.7082C1.28915 10.4188 2.1287 9.35013 3.32522 8.6103C4.76835 7.71823 6.34849 7.35136 8.04129 7.77989C8.48351 7.89177 8.59768 7.84458 8.49341 7.33614C8.25593 6.1731 7.7551 5.09684 7.46205 3.95664C7.23295 3.06534 6.99471 2.18393 6.62631 1.33221C6.36752 0.733188 6.94143 0.0550066 7.66909 0.00629321C8.18667 -0.0287195 8.68978 0.0892582 9.23781 0.18973L9.23933 0.190491ZM7.51533 18.9497C8.45915 18.6453 9.09547 17.9062 9.70058 17.1009C11.2145 15.0861 10.9473 11.5027 8.2506 10.1805C6.86227 9.50008 5.24636 9.82889 4.05592 10.8328C3.5216 11.2834 3.11895 11.8322 2.77415 12.464C1.76715 14.3098 2.02975 16.868 3.85269 18.4063C4.9594 19.3402 6.21758 19.3683 7.51457 18.9497H7.51533Z" fill="white"/>
<path d="M28.979 10.2277C29.753 9.45366 30.894 7.17022 32.1179 7.70759C32.4977 7.90092 32.7664 8.20386 32.7999 8.66055C32.9369 10.536 33.0724 12.4115 33.2117 14.2862C33.2977 15.4446 33.3753 16.6046 33.4857 17.7616C33.5831 18.78 33.1074 19.2854 32.0943 19.1887C31.6201 19.1438 31.3286 18.8477 31.2951 18.3583C31.1535 16.2941 30.9062 14.2344 30.8773 12.1664C30.8704 11.6541 30.7524 11.3512 30.3521 11.8947C26.146 17.5979 27.1697 17.2075 22.6142 11.9259C22.3319 11.6427 22.4613 12.4297 22.4141 12.5668C22.3448 14.43 22.2786 16.2933 22.2047 18.1559C22.1758 18.8858 21.7587 19.3356 21.1194 19.3486C20.4876 19.3615 19.9837 18.8652 20.0043 18.1383C20.123 15.0785 20.1801 12.0164 20.3795 8.96348C20.5439 7.86515 22.1591 7.87961 22.733 8.60498C23.8252 9.92709 24.922 11.2462 26.0219 12.5622C26.423 13.0425 26.4329 13.0409 26.8652 12.5751C27.5731 11.8125 28.2429 11.0224 28.979 10.2277Z" fill="white"/>
<path d="M42.2678 16.1159C43.131 14.9872 43.4819 13.818 43.7391 12.5462C43.937 11.5673 43.7452 10.6083 43.5915 9.64542C43.5138 9.15905 43.73 8.78 44.1258 8.50446C44.4911 8.251 44.8961 8.25557 45.2348 8.50066C45.626 8.78381 45.7516 9.25343 45.8376 9.7086C46.1451 11.3344 45.9944 12.9252 45.5674 14.5236C45.25 15.7133 44.6845 16.7469 43.9134 17.6679C42.5807 19.2587 40.4045 20.0259 38.4393 19.293C37.1986 18.8302 36.3027 18.0066 35.6382 16.9463C34.2126 14.6705 34.0101 12.1755 34.5232 9.58834C34.5993 9.20396 34.6312 8.81273 34.7842 8.44357C35.0537 7.79431 35.6687 7.43049 36.2357 7.60783C36.8226 7.79203 37.0913 8.35071 36.8896 9.07304C36.3918 10.8572 36.2837 12.6634 36.85 14.4262C37.2321 15.6151 37.8859 16.6883 39.154 17.2074C40.1861 17.6299 41.56 17.0422 42.2671 16.1159H42.2678Z" fill="white"/>
<path d="M17.2382 17.9868C16.0524 18.4823 15.1847 17.3642 15.5873 16.323C15.7723 15.8435 16.1445 15.5725 16.6407 15.5732C17.0936 15.5732 17.4331 15.829 17.6234 16.2628C17.9682 17.0483 17.975 17.6793 17.2382 17.9868Z" fill="white"/>
<path d="M15.9038 10.4561C16.3712 10.2864 16.8431 10.2841 17.1369 10.7476C17.4459 11.2347 17.4071 12.0469 17.0829 12.4495C16.8142 12.7829 15.9861 12.8499 15.505 12.5782C15.1351 12.3689 14.9471 11.7911 15.1206 11.358C15.2706 10.9843 15.4738 10.6129 15.9031 10.4568L15.9038 10.4561Z" fill="white"/>
<path d="M5.04926 12.486C5.00283 11.782 5.50975 12.0819 5.64752 12.158C6.39725 12.5728 7.5991 13.0752 8.5414 13.7199C9.02625 14.0517 8.78877 14.3547 8.42342 14.6477C7.64096 15.2741 6.85622 15.8869 6.07604 16.511C5.72439 16.7926 5.4618 16.7355 5.39254 16.3451C5.14821 14.9689 5.15125 14.0601 5.04774 12.486H5.04926Z" fill="white"/>
</svg>
