<svg id="notice_icon" xmlns="http://www.w3.org/2000/svg" width="19.489" height="17.538" viewBox="0 0 19.489 17.538">
  <g id="그룹_57" data-name="그룹 57" transform="translate(0 0)">
    <path id="패스_109" data-name="패스 109" d="M.027,25.4,0,32.194a.811.811,0,0,0,.258.6.849.849,0,0,0,.612.217c.014,0,.707-.054,1.78-.068a6.632,6.632,0,0,0,.584,2.324A4.356,4.356,0,0,0,7.3,37.875h.136a4.289,4.289,0,0,0,3.058-1.128,5.15,5.15,0,0,0,1.413-2.813,20.858,20.858,0,0,1,6.225,3.425h0a.8.8,0,0,0,.544.2A.875.875,0,0,0,19,37.494a.817.817,0,0,0,.489-.747V21.158a.825.825,0,0,0-1.373-.612c-.027.027-3.289,2.936-5.762,3.7a21.075,21.075,0,0,1-5.9.666,50.081,50.081,0,0,1-5.5-.326.836.836,0,0,0-.639.19A.868.868,0,0,0,.027,25.4ZM7.434,36.244h-.1A2.737,2.737,0,0,1,4.73,34.613a4.691,4.691,0,0,1-.448-1.685c.326,0,.68.014,1.019.027a.821.821,0,0,0,.326.068h0a.648.648,0,0,0,.272-.054,27.813,27.813,0,0,1,4.417.516A2.834,2.834,0,0,1,7.434,36.244Zm5.409-10.438a17.69,17.69,0,0,0,5.015-2.922V35.1a23.972,23.972,0,0,0-5.409-2.718,22.37,22.37,0,0,0-5.98-1.006L6.5,26.553A22.629,22.629,0,0,0,12.843,25.806Zm-11.185.5c.747.068,1.889.163,3.207.2L4.838,31.3c-.367-.014-.72-.014-1.047-.014-.87,0-1.617.027-2.161.041Z" transform="translate(0 -20.336)" fill="#fff"/>
  </g>
</svg>
